<svg width="610" height="625" viewBox="0 0 610 625" fill="none" xmlns="http://www.w3.org/2000/svg">
<path fill-rule="evenodd" clip-rule="evenodd" d="M304.982 0.271216C366.284 -3.06347 423.857 24.8003 474.731 59.1833C527.141 94.6051 576.777 138.059 597.379 197.889C618.178 258.289 612.323 326.005 586.769 384.55C562.671 439.76 507.843 470.055 461.693 508.751C411.246 551.049 369.882 609.852 304.982 620.822C235.203 632.617 152.956 620.668 104.418 569.142C56.9764 518.779 86.6684 436.597 68.5293 369.813C51.7722 308.117 -14.058 256.371 2.71111 194.679C19.4855 132.967 94.3663 111.531 148.135 76.9493C198.312 44.6778 245.421 3.51123 304.982 0.271216Z" fill="#F2DE00"/>
<path d="M471.688 420.803C462.961 449.043 448.099 470.884 432.973 475.696C430.328 506.606 404.36 509.832 392.936 515.094C404.175 549.046 372.838 596.747 334.441 522.366C264.495 523.185 220.227 544.815 194.285 548.808C158.162 553.805 137.773 543.81 141.925 530.906C143.908 524.772 157.104 518.056 166.386 511.815C195.078 492.513 250.268 474.321 259.762 476.648C252.527 473.657 245.957 469.262 240.431 463.718C240.431 463.718 196.956 479.133 169.771 480.535C124.604 488.018 120.346 444.362 158.268 430.295C181.042 416.561 206.136 407.107 232.312 402.399C235.348 394.35 238.79 386.46 242.626 378.76C217.768 384.049 221.47 358.242 234.296 347.718C245.217 338.146 264.601 323.92 285.36 307.817C306.119 291.714 307.494 274.157 307.494 274.157C307.494 274.157 294.457 259.005 294.457 241.131C294.457 223.256 299.746 172.752 302.945 163.207C306.145 153.661 306.595 152.63 316.591 143.825C315.374 125.025 319.632 121.693 324.789 120.16C341.925 117.753 345.706 138.352 345.706 138.352C345.706 138.352 382.49 139.198 399.098 142.212C408.327 133.724 421.073 125.686 425.78 126.162C427.827 126.651 429.674 127.759 431.069 129.335C435.651 133.779 438.365 139.802 438.658 146.178C438.773 148.514 438.515 150.852 437.892 153.106C451.537 168.971 454.869 236.927 451.537 251.946C448.205 266.964 441.144 277.832 448.311 285.024C454.728 291.342 460.221 298.535 464.627 306.389C483.931 340.843 482.556 385.767 471.688 420.803Z" fill="white"/>
<path d="M473.143 420.803C448.523 412.87 427.182 331.985 466.003 306.416C485.307 340.843 483.932 385.768 473.143 420.803Z" fill="#F2DE01"/>
<path d="M432.708 129.335C431.888 129.97 418.428 140.573 419.486 146.469C420.544 152.366 434.03 151.573 436.146 151.626C438.262 151.679 440.113 146.813 440.351 146.205C440.05 139.812 437.316 133.777 432.708 129.335Z" fill="#F2DE01"/>
<path d="M375.298 563.774C365.778 563.774 351.498 556.423 334.732 524.375C286.656 525.116 251.009 535.692 224.908 543.334C215.442 546.387 205.798 548.86 196.031 550.738C171.279 554.149 151.287 550.738 143.856 541.906C142.463 540.347 141.51 538.445 141.097 536.395C140.683 534.346 140.823 532.223 141.502 530.245C143.247 524.957 151.287 519.854 159.828 514.539C162.208 513.058 164.588 511.578 166.73 510.123C190.953 493.835 234.322 478.102 253.627 475.009C249.147 472.545 244.997 469.525 241.277 466.018C233.925 468.663 196.321 481.249 171.279 482.518C147.241 486.511 135.473 476.013 132.749 465.807C129.364 453.353 137.297 436.536 158.797 428.445C181.417 414.889 206.263 405.453 232.18 400.575C233.344 397.561 236.702 388.941 240.431 381.246C230.461 382.224 226.521 377.571 225.04 374.45C221.232 366.518 225.595 353.297 234.349 346.105C241.541 339.838 252.331 331.588 264.839 322.043C271.371 317.072 278.326 311.73 285.466 306.178C302.84 292.666 306.172 278.123 306.621 274.686C303.977 271.407 293.69 257.472 293.69 241.052C293.69 223.362 298.979 172.647 302.284 162.519C305.511 152.895 306.145 151.546 315.771 142.926C314.872 125.051 318.839 120.186 325.556 118.203C325.652 118.188 325.75 118.188 325.846 118.203C339.915 116.14 346.658 128.489 348.642 136.421C355.755 136.633 384.712 137.611 399.785 140.176C408.909 131.979 421.734 123.756 427.287 124.311C429.781 124.833 432.043 126.139 433.74 128.039C438.7 132.831 441.634 139.342 441.938 146.231C442.051 148.425 441.855 150.623 441.356 152.762C455.345 171.034 457.937 238.196 454.763 252.527C453.838 256.758 452.568 260.724 451.484 264.241C448.417 273.945 446.883 279.63 451.008 283.755C457.548 290.201 463.147 297.536 467.642 305.543C485.121 336.586 487.845 379.924 474.967 421.517C466.029 450.603 451.167 471.756 436.199 477.309C433.317 503.275 414.356 510.018 401.821 514.513C400.05 515.147 398.331 515.755 396.85 516.364C402.139 535.243 395.607 556.899 382.305 562.478C380.078 563.37 377.696 563.81 375.298 563.774ZM335.816 520.383C336.182 520.385 336.541 520.487 336.853 520.678C337.165 520.869 337.419 521.142 337.588 521.467C352.502 550.368 368.21 563.774 380.666 558.697C392.381 553.752 398.119 532.89 392.434 515.729C392.278 515.264 392.301 514.759 392.496 514.31C392.691 513.861 393.046 513.5 393.491 513.296C395.475 512.397 397.855 511.551 400.393 510.652C412.981 506.183 430.223 500.075 432.365 475.564C432.405 475.176 432.556 474.807 432.8 474.503C433.044 474.198 433.37 473.97 433.74 473.845C447.808 469.376 462.485 448.329 471.159 420.248C483.72 379.686 481.076 337.379 464.204 307.394C459.908 299.722 454.569 292.683 448.337 286.479C442.281 280.423 444.847 272.306 447.808 262.945C448.919 259.349 450.109 255.621 451.008 251.549C454.499 235.684 450.717 169.579 437.786 154.428C437.575 154.185 437.429 153.894 437.359 153.58C437.29 153.266 437.3 152.939 437.389 152.63C437.948 150.573 438.18 148.44 438.077 146.311C437.801 140.439 435.306 134.891 431.095 130.789C429.998 129.548 428.58 128.633 426.997 128.145C423.559 127.748 411.817 134.518 401.848 143.693C401.618 143.892 401.347 144.038 401.055 144.12C400.762 144.202 400.455 144.219 400.155 144.169C383.866 141.207 347.346 140.282 346.976 140.255C346.523 140.24 346.089 140.073 345.743 139.78C345.397 139.487 345.161 139.087 345.072 138.642C345.072 137.876 341.449 120.133 326.56 122.037C323.176 123.042 318.627 124.681 319.923 143.64C319.939 143.937 319.888 144.234 319.773 144.509C319.659 144.783 319.484 145.029 319.262 145.226C309.451 154.005 309.266 154.56 306.04 163.736C302.813 172.911 297.657 222.542 297.657 241.025C297.657 257.948 310.086 272.755 310.218 272.755C310.558 273.15 310.729 273.663 310.694 274.183C310.694 274.95 309.028 292.692 287.793 309.271C280.653 314.824 273.672 320.165 267.14 325.136C254.684 334.629 243.948 342.852 236.808 349.093C229.668 355.333 225.569 366.465 228.61 372.732C231.255 378.02 238.157 377.888 243.525 376.751C243.905 376.654 244.305 376.672 244.675 376.803C245.045 376.933 245.368 377.171 245.603 377.485C245.838 377.799 245.975 378.176 245.995 378.568C246.016 378.96 245.92 379.349 245.72 379.686C241.919 387.319 238.504 395.138 235.486 403.113C235.362 403.445 235.153 403.737 234.878 403.96C234.604 404.184 234.275 404.329 233.925 404.383C208.061 409.097 183.263 418.45 160.727 431.988L160.357 432.173C140.947 439.418 133.701 454.093 136.557 464.881C138.937 473.898 149.224 482.227 170.935 478.658C197.749 477.283 240.827 462.079 241.251 461.946C241.622 461.816 242.025 461.799 242.406 461.897C242.788 461.996 243.131 462.207 243.393 462.502C248.764 467.774 255.091 471.974 262.036 474.876C262.488 475.08 262.847 475.445 263.042 475.901C263.238 476.356 263.256 476.867 263.094 477.335C262.925 477.799 262.593 478.184 262.159 478.418C261.725 478.652 261.22 478.719 260.74 478.605C252.278 476.542 198.093 493.888 168.951 513.508C166.757 514.962 164.35 516.469 161.917 517.976C154.724 522.472 146.553 527.469 145.231 531.462C144.763 532.807 144.665 534.253 144.949 535.649C145.233 537.045 145.887 538.339 146.844 539.394C151.763 545.264 167.444 550.711 195.449 546.851C205.03 545.01 214.488 542.582 223.771 539.579C250.215 531.647 286.629 521.07 335.763 520.436L335.816 520.383Z" fill="black"/>
<path d="M163.001 447.667C156.02 449.73 159.114 463.929 162.393 466.705C163.385 467.479 164.562 467.977 165.807 468.151C167.053 468.325 168.322 468.169 169.487 467.697C170.653 467.226 171.674 466.456 172.448 465.465C173.222 464.474 173.721 463.297 173.896 462.052C175.615 455.283 169.956 445.578 163.001 447.667Z" fill="#F2DE01"/>
<path d="M147.029 454.86C149.424 454.86 151.366 452.918 151.366 450.523C151.366 448.129 149.424 446.187 147.029 446.187C144.634 446.187 142.692 448.129 142.692 450.523C142.692 452.918 144.634 454.86 147.029 454.86Z" fill="#F2DE01"/>
<path d="M147.584 466.706C149.673 466.706 151.366 465.392 151.366 463.771C151.366 462.15 149.673 460.836 147.584 460.836C145.496 460.836 143.803 462.15 143.803 463.771C143.803 465.392 145.496 466.706 147.584 466.706Z" fill="#F2DE01"/>
<path d="M153.454 476.225C155.324 476.225 156.839 475.112 156.839 473.739C156.839 472.367 155.324 471.254 153.454 471.254C151.585 471.254 150.069 472.367 150.069 473.739C150.069 475.112 151.585 476.225 153.454 476.225Z" fill="#F2DE01"/>
<path d="M334.759 141.339C334.262 141.338 333.783 141.15 333.418 140.812C333.052 140.474 332.828 140.011 332.788 139.515C332.748 139.02 332.896 138.527 333.202 138.135C333.508 137.743 333.951 137.48 334.442 137.399C338.61 136.782 342.816 136.455 347.029 136.421C347.555 136.421 348.06 136.63 348.432 137.002C348.804 137.374 349.013 137.878 349.013 138.404C349.013 138.93 348.804 139.435 348.432 139.807C348.06 140.178 347.555 140.387 347.029 140.387C343.018 140.46 339.015 140.804 335.05 141.419L334.759 141.339Z" fill="black"/>
<path d="M410.388 147.553C410.124 147.554 409.863 147.5 409.621 147.395C406.468 146.081 403.225 144.994 399.916 144.142C399.64 144.106 399.376 144.012 399.138 143.867C398.901 143.721 398.698 143.528 398.54 143.298C398.383 143.069 398.276 142.809 398.225 142.536C398.175 142.262 398.182 141.981 398.248 141.711C398.313 141.441 398.434 141.187 398.604 140.967C398.774 140.746 398.988 140.564 399.232 140.432C399.477 140.3 399.747 140.22 400.024 140.199C400.301 140.178 400.58 140.215 400.842 140.308C404.359 141.2 407.806 142.349 411.155 143.746C411.575 143.924 411.92 144.243 412.133 144.646C412.345 145.05 412.412 145.514 412.322 145.962C412.232 146.409 411.991 146.811 411.638 147.101C411.286 147.391 410.844 147.551 410.388 147.553Z" fill="black"/>
<path d="M432.311 153.635C427.445 153.635 421.575 153.159 418.825 149.642C418.095 148.688 417.604 147.574 417.392 146.392C417.181 145.21 417.255 143.994 417.608 142.847C419.036 137.188 425.33 132.27 429.931 128.674L431.068 127.801C431.468 127.511 431.962 127.382 432.453 127.441C432.943 127.5 433.393 127.742 433.713 128.119C434.037 128.53 434.186 129.052 434.126 129.572C434.067 130.092 433.804 130.568 433.395 130.895L432.232 131.794C428.318 134.861 422.421 139.489 421.337 143.799C420.781 146.02 421.495 146.919 421.733 147.21C423.69 149.695 430.222 149.669 432.311 149.669C432.837 149.669 433.342 149.878 433.714 150.25C434.086 150.621 434.295 151.126 434.295 151.652C434.298 151.911 434.25 152.168 434.153 152.409C434.056 152.649 433.913 152.868 433.731 153.053C433.549 153.237 433.332 153.384 433.093 153.483C432.854 153.583 432.597 153.635 432.338 153.635H432.311Z" fill="black"/>
<path d="M344.198 174.55C343.936 177.116 342.685 179.479 340.71 181.137C338.736 182.796 336.192 183.62 333.62 183.435C323.73 183.435 323.042 173.44 323.042 173.44L331.822 173.889L342.399 174.445L344.198 174.55Z" fill="#F2DE01"/>
<path d="M411.816 179.31C408.452 182.336 404.433 184.544 400.075 185.762C398.201 186.373 396.269 186.79 394.31 187.004C390.769 187.487 387.163 187.082 383.816 185.827C380.47 184.572 377.488 182.505 375.138 179.812C381.516 177.758 388.165 176.662 394.865 176.56H396.716C403.063 176.375 408.22 176.56 409.145 176.56C411.155 176.348 412.715 178.728 411.816 179.31Z" fill="#F2DE01"/>
<path d="M333.885 185.418C330.66 185.476 327.54 184.273 325.189 182.066C322.838 179.858 321.442 176.82 321.298 173.598C321.276 173.316 321.317 173.032 321.417 172.767C321.518 172.502 321.676 172.262 321.879 172.065C322.076 171.867 322.311 171.71 322.571 171.606C322.83 171.501 323.107 171.451 323.387 171.457L344.542 172.567C345.077 172.619 345.575 172.863 345.944 173.255C346.283 173.66 346.454 174.181 346.42 174.709C346.137 177.775 344.669 180.609 342.328 182.609C339.987 184.609 336.958 185.617 333.885 185.418ZM325.74 175.555C326.223 177.313 327.296 178.851 328.779 179.91C330.263 180.97 332.066 181.486 333.885 181.372C335.608 181.534 337.336 181.128 338.807 180.216C340.277 179.304 341.409 177.937 342.03 176.322L325.74 175.555Z" fill="black"/>
<path d="M344.49 176.56C344.115 176.554 343.749 176.444 343.432 176.243C343.019 175.958 342.727 175.528 342.615 175.039C342.502 174.549 342.577 174.035 342.824 173.598L343.565 172.382C343.698 172.148 343.878 171.944 344.093 171.782C344.308 171.62 344.553 171.503 344.815 171.439C345.076 171.375 345.348 171.364 345.614 171.409C345.88 171.453 346.133 171.551 346.36 171.697C346.586 171.842 346.781 172.032 346.932 172.256C347.082 172.479 347.186 172.73 347.236 172.995C347.286 173.259 347.282 173.531 347.224 173.794C347.165 174.057 347.054 174.305 346.897 174.524L346.209 175.634C346.021 175.919 345.766 176.152 345.466 176.313C345.166 176.475 344.831 176.56 344.49 176.56Z" fill="black"/>
<path d="M401.742 181.848C401.73 182.592 401.562 183.325 401.247 184C400.933 184.674 400.48 185.274 399.917 185.762C398.044 186.373 396.112 186.79 394.152 187.004C393.012 186.696 392.002 186.028 391.272 185.099C390.543 184.169 390.134 183.029 390.106 181.848C390.148 180.572 390.629 179.349 391.467 178.386C392.305 177.423 393.45 176.778 394.708 176.56C395.095 176.519 395.485 176.519 395.871 176.56H396.559C397.922 176.649 399.204 177.238 400.161 178.214C401.117 179.19 401.68 180.484 401.742 181.848Z" fill="black"/>
<path d="M342.638 176.454C342.5 177.902 341.827 179.245 340.751 180.223C339.675 181.201 338.274 181.743 336.82 181.743C335.366 181.743 333.964 181.201 332.889 180.223C331.813 179.245 331.14 177.902 331.002 176.454C330.996 175.528 331.233 174.616 331.69 173.81L342.267 174.366C342.524 175.032 342.65 175.741 342.638 176.454Z" fill="black"/>
<path d="M394.601 188.988C394.417 189.014 394.23 189.014 394.045 188.988C392.47 188.566 391.077 187.639 390.079 186.35C389.08 185.06 388.532 183.479 388.519 181.849C388.564 180.118 389.203 178.455 390.33 177.14C391.457 175.826 393.003 174.939 394.707 174.63H394.918C395.68 174.508 396.457 174.508 397.219 174.63C399.07 174.786 400.798 175.62 402.072 176.971C403.346 178.323 404.075 180.098 404.121 181.954C404.101 182.996 403.853 184.02 403.397 184.956C402.94 185.893 402.285 186.718 401.476 187.375C401.28 187.557 401.045 187.692 400.789 187.772C398.786 188.423 396.721 188.866 394.627 189.094L394.601 188.988ZM395.394 178.543C394.617 178.696 393.914 179.105 393.396 179.704C392.879 180.303 392.576 181.058 392.538 181.849C392.56 182.54 392.788 183.21 393.193 183.77C393.598 184.331 394.162 184.758 394.812 184.995C396.346 184.806 397.86 184.479 399.334 184.017C399.891 183.431 400.203 182.656 400.207 181.849C400.157 180.972 399.788 180.143 399.169 179.52C398.551 178.896 397.725 178.521 396.849 178.464H396.452C396.215 178.432 395.975 178.432 395.738 178.464L395.394 178.543Z" fill="black"/>
<path d="M337.19 183.832C336.183 183.878 335.176 183.723 334.229 183.375C333.282 183.028 332.414 182.495 331.675 181.808C330.936 181.121 330.342 180.294 329.927 179.375C329.512 178.456 329.284 177.463 329.257 176.455C329.314 175.209 329.687 173.999 330.341 172.938C330.53 172.616 330.801 172.351 331.126 172.17C331.452 171.989 331.82 171.898 332.192 171.907L342.77 172.462C343.15 172.492 343.514 172.626 343.822 172.85C344.13 173.074 344.37 173.379 344.515 173.731C344.975 174.883 345.137 176.133 344.986 177.365C344.835 178.596 344.376 179.77 343.651 180.777C342.926 181.784 341.959 182.592 340.839 183.126C339.719 183.66 338.482 183.903 337.243 183.832H337.19ZM333.409 175.899C333.342 176.909 333.679 177.904 334.346 178.665C335.013 179.426 335.955 179.891 336.965 179.958C337.975 180.025 338.97 179.687 339.732 179.021C340.493 178.354 340.958 177.412 341.025 176.402L333.409 175.899Z" fill="black"/>
<path d="M391.772 189.305C388.412 189.323 385.087 188.625 382.018 187.257C378.949 185.889 376.207 183.883 373.975 181.372C373.753 181.141 373.593 180.857 373.51 180.548C373.426 180.238 373.423 179.912 373.499 179.601C373.572 179.286 373.721 178.993 373.933 178.749C374.145 178.505 374.414 178.316 374.715 178.199C381.283 176.009 388.155 174.867 395.078 174.815H396.849C401.186 174.815 404.968 174.815 407.216 174.815H409.252C410.275 174.775 411.284 175.058 412.138 175.622C412.992 176.187 413.648 177.005 414.012 177.961C414.244 178.468 414.31 179.034 414.2 179.58C414.091 180.126 413.812 180.624 413.404 181.002C409.787 184.247 405.484 186.633 400.816 187.983C397.851 188.946 394.757 189.455 391.64 189.49L391.772 189.305ZM379.211 180.817C381.296 182.564 383.724 183.856 386.338 184.607C388.953 185.359 391.696 185.554 394.39 185.18C396.188 184.974 397.961 184.584 399.679 184.016C403.392 182.871 406.874 181.081 409.966 178.728C409.833 178.637 409.678 178.582 409.516 178.569H407.216C404.994 178.569 401.266 178.569 397.035 178.569H395.448H394.998C389.677 178.725 384.386 179.434 379.211 180.685V180.817Z" fill="black"/>
<path d="M349.833 198.771C350.759 196.127 363.267 194.276 365.462 197.105C367.657 199.935 354.884 211.437 353.773 210.749C352.663 210.062 348.855 201.362 349.833 198.771Z" fill="#F2DE01"/>
<path d="M353.641 212.679C353.287 212.689 352.939 212.597 352.636 212.415C350.811 211.251 346.659 201.627 347.876 198.11C348.722 195.704 352.689 194.567 355.809 194.064C357.819 193.747 364.589 192.927 366.863 195.889C368.45 197.951 367.233 201.177 363.029 205.646C360.04 209.004 356.1 212.679 353.641 212.679ZM351.604 199.458C351.896 202.531 352.795 205.515 354.249 208.237C356.893 206.307 362.949 200.305 363.478 198.11C362.212 197.641 360.855 197.47 359.511 197.607C356.724 197.596 353.975 198.258 351.499 199.538L351.604 199.458Z" fill="black"/>
<path d="M354.512 246.578C354.027 246.576 353.558 246.398 353.194 246.077C352.829 245.756 352.593 245.314 352.529 244.833C350.837 230.184 349.409 212.124 352.317 209.321C352.689 209.051 353.143 208.917 353.602 208.944C354.061 208.971 354.496 209.157 354.833 209.469C355.17 209.781 355.389 210.201 355.451 210.656C355.513 211.112 355.415 211.575 355.173 211.966C353.931 214.345 354.883 230.475 356.469 244.251C356.502 244.51 356.483 244.774 356.413 245.025C356.342 245.277 356.222 245.512 356.06 245.717C355.897 245.921 355.695 246.091 355.466 246.216C355.236 246.342 354.984 246.42 354.724 246.446L354.512 246.578Z" fill="black"/>
<path d="M370.379 254.061C369.95 254.063 369.532 253.923 369.189 253.664C359.141 246.155 354.724 246.181 353.323 246.525C353.059 246.566 352.807 246.662 352.584 246.808C352.36 246.954 352.17 247.146 352.027 247.371C351.937 247.626 351.795 247.86 351.611 248.058C351.427 248.257 351.204 248.415 350.956 248.524C350.709 248.633 350.441 248.69 350.17 248.692C349.9 248.694 349.632 248.64 349.383 248.534C349.132 248.438 348.903 248.293 348.709 248.107C348.514 247.922 348.359 247.7 348.251 247.454C348.142 247.209 348.084 246.944 348.079 246.675C348.073 246.407 348.121 246.14 348.219 245.89C348.551 245.112 349.057 244.421 349.699 243.871C350.341 243.321 351.102 242.926 351.921 242.717C356.285 241.422 362.869 244.013 371.49 250.438C371.874 250.75 372.128 251.194 372.201 251.683C372.275 252.173 372.162 252.672 371.887 253.082C371.727 253.35 371.508 253.577 371.247 253.747C370.986 253.916 370.689 254.024 370.379 254.061Z" fill="black"/>
<path d="M317.12 282.645C316.918 282.67 316.714 282.67 316.512 282.645C312.814 281.135 309.61 278.627 307.256 275.4C306.933 274.981 306.788 274.452 306.853 273.928C306.917 273.403 307.186 272.925 307.6 272.597C308.005 272.315 308.5 272.194 308.989 272.258C309.478 272.322 309.925 272.565 310.245 272.941C312.124 275.534 314.662 277.579 317.596 278.864C318.092 279.027 318.504 279.38 318.742 279.845C318.98 280.311 319.024 280.851 318.865 281.349C318.729 281.71 318.492 282.024 318.183 282.253C317.874 282.483 317.505 282.619 317.12 282.645Z" fill="black"/>
<path d="M306.092 204.535C299.411 204.129 292.813 202.84 286.47 200.701C286.215 200.626 285.977 200.499 285.771 200.329C285.565 200.159 285.396 199.95 285.273 199.713C285.151 199.476 285.077 199.217 285.057 198.951C285.036 198.685 285.07 198.418 285.155 198.165C285.241 197.912 285.376 197.679 285.554 197.48C285.731 197.281 285.947 197.12 286.188 197.006C286.43 196.893 286.691 196.829 286.958 196.818C287.224 196.808 287.49 196.852 287.74 196.947C293.679 198.925 299.846 200.142 306.092 200.569C306.618 200.569 307.123 200.778 307.495 201.15C307.866 201.522 308.075 202.026 308.075 202.552C308.075 203.078 307.866 203.583 307.495 203.955C307.123 204.326 306.618 204.535 306.092 204.535Z" fill="black"/>
<path d="M289.115 216.17C288.746 216.165 288.386 216.059 288.073 215.863C287.761 215.667 287.508 215.389 287.343 215.059C287.114 214.589 287.08 214.047 287.248 213.552C287.417 213.057 287.774 212.648 288.242 212.415C291.786 210.617 302.945 211.516 305.167 211.701C305.703 211.747 306.2 212.004 306.547 212.415C306.894 212.827 307.063 213.359 307.018 213.896C306.972 214.432 306.715 214.929 306.304 215.276C305.892 215.623 305.359 215.792 304.823 215.747C299.798 215.324 291.891 215.112 290.014 216.064C289.725 216.161 289.419 216.197 289.115 216.17Z" fill="black"/>
<path d="M285.889 227.487C285.363 227.487 284.858 227.278 284.486 226.906C284.114 226.534 283.905 226.03 283.905 225.504C283.905 224.978 284.114 224.474 284.486 224.102C284.858 223.73 285.363 223.521 285.889 223.521C288.806 223.203 291.696 222.673 294.536 221.934C297.471 221.3 300.248 220.692 302.046 220.48C302.572 220.424 303.099 220.579 303.511 220.911C303.922 221.244 304.185 221.726 304.241 222.252C304.297 222.778 304.142 223.304 303.81 223.716C303.477 224.127 302.995 224.39 302.469 224.446C300.883 224.605 298.106 225.213 295.409 225.821C292.286 226.635 289.102 227.192 285.889 227.487Z" fill="black"/>
<path d="M446.169 221.326H445.825L415.995 216.038C415.476 215.943 415.016 215.646 414.716 215.212C414.416 214.778 414.301 214.243 414.396 213.724C414.49 213.205 414.787 212.745 415.221 212.445C415.655 212.145 416.19 212.03 416.709 212.124L446.512 217.413C446.77 217.457 447.015 217.552 447.236 217.692C447.456 217.832 447.647 218.014 447.797 218.228C447.946 218.442 448.053 218.683 448.109 218.938C448.166 219.193 448.171 219.456 448.126 219.713C448.034 220.166 447.79 220.573 447.434 220.867C447.077 221.161 446.63 221.323 446.169 221.326Z" fill="black"/>
<path d="M435.645 228.28C435.28 228.284 434.922 228.183 434.613 227.989C428.399 224.182 417.054 227.646 416.948 227.698C416.697 227.787 416.431 227.824 416.165 227.807C415.9 227.791 415.64 227.721 415.402 227.602C415.164 227.483 414.953 227.317 414.78 227.115C414.607 226.912 414.477 226.677 414.397 226.423C414.317 226.17 414.289 225.902 414.315 225.637C414.34 225.373 414.419 225.115 414.546 224.882C414.673 224.648 414.846 224.442 415.054 224.276C415.262 224.111 415.502 223.988 415.758 223.917C416.287 223.732 428.981 219.845 436.702 224.605C437.125 224.882 437.426 225.31 437.544 225.801C437.662 226.292 437.588 226.81 437.337 227.249C437.177 227.56 436.934 227.82 436.636 228.002C436.337 228.184 435.994 228.28 435.645 228.28Z" fill="black"/>
<path d="M427.737 237.984C424.559 237.866 421.408 237.369 418.349 236.503C418.097 236.432 417.862 236.312 417.656 236.15C417.451 235.988 417.28 235.787 417.152 235.559C417.024 235.33 416.943 235.079 416.912 234.819C416.882 234.559 416.902 234.296 416.974 234.044C417.045 233.793 417.165 233.557 417.327 233.352C417.489 233.147 417.69 232.975 417.918 232.848C418.147 232.72 418.398 232.638 418.658 232.608C418.918 232.577 419.181 232.598 419.433 232.669C422.781 233.765 426.32 234.152 429.826 233.806C430.076 233.732 430.338 233.707 430.598 233.734C430.857 233.76 431.109 233.838 431.338 233.962C431.568 234.086 431.771 234.254 431.936 234.456C432.1 234.659 432.224 234.892 432.298 235.142C432.373 235.392 432.398 235.654 432.371 235.914C432.344 236.173 432.267 236.425 432.143 236.654C432.019 236.884 431.851 237.087 431.648 237.252C431.446 237.416 431.213 237.539 430.963 237.614C429.909 237.883 428.824 238.007 427.737 237.984Z" fill="black"/>
<path d="M230.303 418.873H229.854C229.342 418.753 228.898 418.435 228.621 417.989C228.343 417.543 228.254 417.005 228.373 416.493L231.705 401.95C231.761 401.694 231.867 401.452 232.018 401.237C232.168 401.023 232.359 400.84 232.581 400.7C232.802 400.56 233.049 400.465 233.307 400.421C233.565 400.377 233.829 400.384 234.085 400.443C234.593 400.568 235.032 400.887 235.309 401.332C235.585 401.776 235.677 402.311 235.566 402.822L232.234 417.392C232.118 417.816 231.867 418.19 231.518 418.458C231.169 418.725 230.743 418.871 230.303 418.873Z" fill="black"/>
<path d="M248.047 352.768C256.298 350.6 256.298 362.129 256.298 362.129C256.298 362.129 252.305 369.083 246.487 367.417C240.669 365.751 239.77 355.042 248.047 352.768Z" fill="#F2DE01"/>
<path d="M234.269 371.224C235.948 371.224 237.31 369.863 237.31 368.184C237.31 366.504 235.948 365.143 234.269 365.143C232.589 365.143 231.228 366.504 231.228 368.184C231.228 369.863 232.589 371.224 234.269 371.224Z" fill="#F2DE01"/>
<path d="M243.948 380.664C243.623 380.677 243.301 380.594 243.022 380.426C242.795 380.306 242.593 380.143 242.429 379.945C242.264 379.748 242.14 379.52 242.064 379.274C241.988 379.028 241.961 378.77 241.985 378.514C242.009 378.258 242.083 378.009 242.202 377.782C245.541 372.085 249.487 366.765 253.97 361.917C269.308 344.492 293.769 324.343 313.893 318.552C314.402 318.413 314.944 318.48 315.404 318.737C315.864 318.994 316.205 319.422 316.353 319.927C316.491 320.432 316.424 320.971 316.166 321.427C315.909 321.883 315.481 322.218 314.978 322.36C295.647 327.939 271.9 347.559 256.958 364.667C252.7 369.269 248.933 374.302 245.72 379.686C245.541 379.995 245.282 380.249 244.97 380.422C244.658 380.594 244.304 380.678 243.948 380.664Z" fill="black"/>
<path d="M343.563 437.593C341.224 437.742 338.879 437.401 336.679 436.59C334.48 435.779 332.474 434.518 330.791 432.887C327.511 429.344 323.545 420.803 333.62 403.166C349.566 375.006 378.92 343.091 379.21 342.667C379.586 342.302 380.088 342.098 380.612 342.098C381.135 342.098 381.638 342.302 382.014 342.667C382.385 343.039 382.594 343.543 382.594 344.069C382.594 344.594 382.385 345.098 382.014 345.47C381.723 345.788 352.66 377.359 336.793 405.149C330.341 416.414 329.125 425.536 333.435 430.19C337.745 434.844 348.746 434.711 360.699 429.053C384.658 417.656 424.88 368.422 425.303 367.946C425.465 367.742 425.666 367.573 425.894 367.448C426.121 367.323 426.372 367.245 426.63 367.218C426.889 367.191 427.15 367.216 427.399 367.291C427.648 367.366 427.879 367.49 428.08 367.655C428.447 367.981 428.681 368.432 428.734 368.921C428.788 369.41 428.658 369.901 428.371 370.299C426.705 372.362 387.17 420.697 362.259 432.49C356.463 435.505 350.088 437.245 343.563 437.593Z" fill="black"/>
<path d="M329.733 429.37C329.25 429.373 328.781 429.205 328.411 428.894C328.216 428.721 328.058 428.51 327.944 428.276C327.831 428.041 327.765 427.786 327.75 427.526C327.736 427.265 327.772 427.004 327.858 426.758C327.945 426.512 328.078 426.286 328.252 426.091L335.842 417.551C336.192 417.16 336.682 416.922 337.206 416.887C337.73 416.852 338.246 417.024 338.645 417.365C338.84 417.539 338.998 417.749 339.112 417.984C339.225 418.219 339.291 418.474 339.306 418.734C339.32 418.994 339.284 419.255 339.197 419.501C339.111 419.747 338.977 419.974 338.804 420.168L331.214 428.709C331.03 428.92 330.802 429.088 330.546 429.203C330.291 429.317 330.013 429.374 329.733 429.37Z" fill="black"/>
<path d="M348.272 437.197H348.061C347.539 437.143 347.059 436.885 346.727 436.479C346.395 436.072 346.237 435.551 346.289 435.029L347.32 424.452C347.343 424.192 347.418 423.939 347.54 423.709C347.662 423.478 347.829 423.275 348.031 423.109C348.233 422.944 348.466 422.821 348.717 422.748C348.967 422.674 349.229 422.651 349.489 422.68C349.75 422.703 350.003 422.778 350.235 422.9C350.467 423.022 350.673 423.188 350.84 423.39C351.007 423.591 351.132 423.824 351.209 424.074C351.286 424.325 351.312 424.588 351.287 424.849L350.229 435.425C350.177 435.909 349.949 436.357 349.588 436.684C349.227 437.011 348.759 437.193 348.272 437.197Z" fill="black"/>
<path d="M335.815 524.349C335.399 524.353 334.993 524.224 334.656 523.982C334.318 523.739 334.067 523.395 333.938 523C328.403 507.135 325.353 490.51 324.894 473.713C324.894 473.454 324.945 473.197 325.045 472.958C325.145 472.719 325.291 472.502 325.476 472.32C325.661 472.138 325.879 471.994 326.12 471.898C326.36 471.801 326.618 471.753 326.877 471.756C327.14 471.756 327.4 471.808 327.642 471.91C327.884 472.011 328.104 472.159 328.289 472.346C328.473 472.533 328.619 472.755 328.717 472.999C328.815 473.242 328.864 473.503 328.86 473.766C329.356 490.118 332.334 506.3 337.693 521.758C337.793 522.012 337.84 522.285 337.831 522.558C337.822 522.831 337.757 523.1 337.641 523.348C337.525 523.595 337.359 523.816 337.154 523.998C336.949 524.179 336.71 524.316 336.45 524.402L335.815 524.349Z" fill="black"/>
<path d="M394.312 517.183C393.868 517.184 393.437 517.036 393.087 516.763C392.737 516.49 392.488 516.107 392.382 515.676C388.124 497.563 389.975 464.062 390.081 462.792C390.088 462.529 390.148 462.271 390.257 462.032C390.367 461.793 390.525 461.579 390.721 461.403C390.916 461.227 391.146 461.093 391.395 461.009C391.644 460.925 391.908 460.893 392.17 460.915C392.692 460.949 393.179 461.188 393.526 461.579C393.872 461.97 394.05 462.482 394.021 463.004C394.021 463.348 392.117 497.378 396.243 514.883C396.305 515.136 396.316 515.4 396.276 515.658C396.235 515.916 396.142 516.163 396.004 516.385C395.866 516.607 395.685 516.799 395.472 516.949C395.259 517.1 395.017 517.207 394.762 517.263C394.609 517.262 394.456 517.235 394.312 517.183Z" fill="black"/>
<path d="M241.833 465.701C241.54 465.704 241.25 465.642 240.985 465.518C240.719 465.395 240.485 465.213 240.299 464.987C232.207 455.15 231.678 447.932 231.652 447.641C231.617 447.115 231.792 446.597 232.139 446.2C232.486 445.803 232.977 445.561 233.503 445.526C234.029 445.491 234.547 445.666 234.944 446.013C235.341 446.36 235.583 446.851 235.619 447.377C235.619 447.509 236.227 453.775 243.367 462.475C243.697 462.879 243.855 463.398 243.805 463.917C243.756 464.437 243.503 464.916 243.102 465.251C242.748 465.551 242.297 465.71 241.833 465.701Z" fill="black"/>
<path d="M328.623 494.866C307.97 494.866 279.49 486.617 260.45 478.42C260.201 478.322 259.976 478.175 259.787 477.986C259.598 477.798 259.449 477.574 259.35 477.326C259.251 477.078 259.203 476.813 259.211 476.546C259.218 476.28 259.279 476.017 259.392 475.776C259.496 475.532 259.646 475.312 259.836 475.127C260.025 474.942 260.249 474.796 260.494 474.697C260.74 474.599 261.003 474.55 261.267 474.554C261.532 474.557 261.793 474.613 262.036 474.718C280.706 482.65 308.552 490.847 328.65 490.847C329.176 490.847 329.68 491.056 330.052 491.428C330.424 491.8 330.633 492.304 330.633 492.83C330.633 493.356 330.424 493.861 330.052 494.233C329.68 494.605 329.176 494.814 328.65 494.814L328.623 494.866Z" fill="black"/>
<path d="M391.692 491.482C391.227 491.478 390.777 491.312 390.42 491.013C390.063 490.714 389.821 490.3 389.736 489.843C389.69 489.586 389.696 489.322 389.752 489.067C389.808 488.812 389.915 488.571 390.064 488.358C390.214 488.144 390.405 487.962 390.625 487.822C390.846 487.682 391.092 487.587 391.349 487.542C406.012 485.244 420.226 480.667 433.475 473.978C433.926 473.736 434.453 473.678 434.946 473.816C435.439 473.954 435.859 474.277 436.119 474.718C436.368 475.168 436.429 475.697 436.291 476.192C436.152 476.686 435.825 477.107 435.379 477.362C434.744 477.759 419.01 486.643 392.089 491.403L391.692 491.482Z" fill="black"/>
<path d="M362.843 559.49H362.71C362.45 559.473 362.195 559.405 361.961 559.29C361.726 559.174 361.517 559.013 361.345 558.817C361.173 558.62 361.042 558.392 360.958 558.144C360.875 557.897 360.841 557.635 360.859 557.375L361.864 543.81C361.911 543.286 362.162 542.802 362.562 542.461C362.963 542.119 363.481 541.949 364.006 541.986C364.528 542.026 365.012 542.271 365.354 542.668C365.696 543.064 365.867 543.579 365.831 544.101L364.72 557.613C364.695 558.102 364.489 558.565 364.142 558.912C363.795 559.259 363.332 559.465 362.843 559.49Z" fill="black"/>
<path d="M389.843 555.445C389.472 555.449 389.108 555.347 388.794 555.15C388.48 554.953 388.229 554.67 388.071 554.334L382.227 542.515C382.005 542.043 381.974 541.504 382.142 541.011C382.31 540.518 382.663 540.109 383.126 539.87C383.6 539.643 384.144 539.613 384.64 539.786C385.136 539.96 385.542 540.323 385.771 540.796L391.588 552.615C391.705 552.848 391.775 553.101 391.793 553.36C391.811 553.619 391.777 553.88 391.694 554.126C391.61 554.372 391.478 554.599 391.306 554.794C391.133 554.989 390.924 555.147 390.689 555.26C390.423 555.379 390.135 555.442 389.843 555.445Z" fill="black"/>
<rect x="92" y="84" width="181" height="56" rx="28" fill="white" fill-opacity="0.95" stroke="black" stroke-width="2"/>
<path d="M146.617 122.656C146.617 121.927 146.865 121.315 147.359 120.82C147.854 120.312 148.525 120.059 149.371 120.059C150.23 120.059 150.901 120.312 151.383 120.82C151.878 121.315 152.125 121.927 152.125 122.656C152.125 123.385 151.878 123.997 151.383 124.492C150.901 124.987 150.23 125.234 149.371 125.234C148.525 125.234 147.854 124.987 147.359 124.492C146.865 123.997 146.617 123.385 146.617 122.656Z" fill="black"/>
<path d="M157.75 122.656C157.75 121.927 157.997 121.315 158.492 120.82C158.987 120.312 159.658 120.059 160.504 120.059C161.363 120.059 162.034 120.312 162.516 120.82C163.01 121.315 163.258 121.927 163.258 122.656C163.258 123.385 163.01 123.997 162.516 124.492C162.034 124.987 161.363 125.234 160.504 125.234C159.658 125.234 158.987 124.987 158.492 124.492C157.997 123.997 157.75 123.385 157.75 122.656Z" fill="black"/>
<path d="M168.883 122.656C168.883 121.927 169.13 121.315 169.625 120.82C170.12 120.312 170.79 120.059 171.637 120.059C172.496 120.059 173.167 120.312 173.648 120.82C174.143 121.315 174.391 121.927 174.391 122.656C174.391 123.385 174.143 123.997 173.648 124.492C173.167 124.987 172.496 125.234 171.637 125.234C170.79 125.234 170.12 124.987 169.625 124.492C169.13 123.997 168.883 123.385 168.883 122.656Z" fill="black"/>
<path d="M180.016 122.656C180.016 121.927 180.263 121.315 180.758 120.82C181.253 120.312 181.923 120.059 182.77 120.059C183.629 120.059 184.299 120.312 184.781 120.82C185.276 121.315 185.523 121.927 185.523 122.656C185.523 123.385 185.276 123.997 184.781 124.492C184.299 124.987 183.629 125.234 182.77 125.234C181.923 125.234 181.253 124.987 180.758 124.492C180.263 123.997 180.016 123.385 180.016 122.656Z" fill="black"/>
<path d="M191.148 122.656C191.148 121.927 191.396 121.315 191.891 120.82C192.385 120.312 193.056 120.059 193.902 120.059C194.762 120.059 195.432 120.312 195.914 120.82C196.409 121.315 196.656 121.927 196.656 122.656C196.656 123.385 196.409 123.997 195.914 124.492C195.432 124.987 194.762 125.234 193.902 125.234C193.056 125.234 192.385 124.987 191.891 124.492C191.396 123.997 191.148 123.385 191.148 122.656Z" fill="black"/>
<path d="M210.895 116.621H206.539C206.552 115.41 206.656 114.395 206.852 113.574C207.047 112.741 207.372 111.986 207.828 111.309C208.297 110.632 208.915 109.915 209.684 109.16C210.283 108.587 210.823 108.047 211.305 107.539C211.786 107.018 212.171 106.471 212.457 105.898C212.743 105.312 212.887 104.642 212.887 103.887C212.887 103.066 212.75 102.37 212.477 101.797C212.203 101.224 211.799 100.788 211.266 100.488C210.745 100.189 210.094 100.039 209.312 100.039C208.661 100.039 208.049 100.169 207.477 100.43C206.904 100.677 206.441 101.068 206.09 101.602C205.738 102.122 205.549 102.812 205.523 103.672H200.816C200.842 102.031 201.233 100.651 201.988 99.5312C202.743 98.4115 203.759 97.5716 205.035 97.0117C206.311 96.4518 207.737 96.1719 209.312 96.1719C211.057 96.1719 212.548 96.4714 213.785 97.0703C215.022 97.6562 215.966 98.5156 216.617 99.6484C217.281 100.768 217.613 102.122 217.613 103.711C217.613 104.857 217.385 105.898 216.93 106.836C216.474 107.76 215.882 108.626 215.152 109.434C214.423 110.228 213.635 111.022 212.789 111.816C212.06 112.48 211.565 113.203 211.305 113.984C211.044 114.753 210.908 115.632 210.895 116.621ZM206.148 122.715C206.148 122.012 206.389 121.419 206.871 120.938C207.353 120.443 208.01 120.195 208.844 120.195C209.677 120.195 210.335 120.443 210.816 120.938C211.298 121.419 211.539 122.012 211.539 122.715C211.539 123.418 211.298 124.017 210.816 124.512C210.335 124.993 209.677 125.234 208.844 125.234C208.01 125.234 207.353 124.993 206.871 124.512C206.389 124.017 206.148 123.418 206.148 122.715Z" fill="black"/>
<circle cx="263.5" cy="154.5" r="8.5" fill="white" fill-opacity="0.95" stroke="black" stroke-width="2"/>
<circle cx="279.5" cy="172.5" r="4.5" fill="white" fill-opacity="0.95" stroke="black" stroke-width="2"/>
</svg>
