<svg width="48" height="48" viewBox="0 0 48 48" fill="none" xmlns="http://www.w3.org/2000/svg">
<circle cx="24" cy="24" r="24" fill="#F2DE00"/>
<path d="M22.7503 38.9333H20.5062C20.4555 38.9333 20.4069 38.9138 20.3707 38.8788C20.3345 38.8439 20.3138 38.7964 20.3129 38.7465V29.0765C20.3132 29.0409 20.3033 29.0059 20.2841 28.9757C20.265 28.9455 20.2375 28.9213 20.2048 28.906C20.1722 28.8906 20.1358 28.8848 20.0999 28.8891C20.064 28.8935 20.03 28.9078 20.0021 28.9304L16.9294 31.308C16.8954 31.3342 16.8535 31.3484 16.8103 31.3484C16.7671 31.3484 16.7252 31.3342 16.6912 31.308L13.622 28.9406C13.594 28.918 13.5601 28.9036 13.5242 28.8993C13.4883 28.895 13.4519 28.9008 13.4192 28.9162C13.3866 28.9315 13.3591 28.9557 13.3399 28.9859C13.3208 29.0161 13.3108 29.0511 13.3112 29.0867V38.7261C13.3112 38.751 13.3062 38.7755 13.2964 38.7984C13.2867 38.8213 13.2724 38.8421 13.2544 38.8595C13.2364 38.8768 13.2151 38.8905 13.1916 38.8997C13.1682 38.9089 13.1431 38.9134 13.1179 38.913H10.86C10.8347 38.9134 10.8097 38.9089 10.7862 38.8997C10.7628 38.8905 10.7415 38.8768 10.7235 38.8595C10.7055 38.8421 10.6912 38.8213 10.6814 38.7984C10.6716 38.7755 10.6666 38.751 10.6666 38.7261V24.8002H10.8082C11.3053 24.8002 11.8059 24.8002 12.3031 24.8002C12.4408 24.7964 12.5755 24.841 12.6829 24.9259L16.6981 28.0372C16.7292 28.0643 16.7637 28.0881 16.8017 28.1153C17.1849 27.8198 17.5612 27.5311 17.9341 27.239L20.9101 24.9327C21.0223 24.8436 21.163 24.7966 21.3072 24.8002C21.7974 24.8002 22.2911 24.8002 22.7848 24.8002H22.9333V38.7465C22.9324 38.7964 22.9116 38.8439 22.8755 38.8788C22.8393 38.9138 22.7906 38.9333 22.74 38.9333" fill="#1C1D1C"/>
<path d="M16.3279 8.85197C14.4454 8.75692 12.556 8.81802 10.6666 8.835V22.0745C10.6666 22.3596 10.6666 22.6482 10.6666 22.9333C12.4455 22.9333 14.2278 22.9333 16.0067 22.9333C16.3901 22.9293 16.7721 22.8861 17.1465 22.8043C18.847 22.4742 20.3684 21.5505 21.4299 20.2038C22.4914 18.8571 23.0212 17.1784 22.9214 15.4777C22.8216 13.777 22.099 12.1692 20.8871 10.9514C19.6751 9.73348 18.0557 8.98778 16.3279 8.85197ZM19.7233 18.0857C19.3316 18.7772 18.7569 19.3518 18.06 19.7486C17.3632 20.1455 16.5702 20.3497 15.7649 20.3398C15.0361 20.3398 14.3038 20.3398 13.575 20.3398C13.3746 20.3398 13.3228 20.2888 13.3228 20.0919C13.3228 18.6831 13.3228 17.2709 13.3228 15.8587C13.3228 14.4465 13.3228 13.0716 13.3228 11.6798C13.3228 11.4727 13.3815 11.415 13.5922 11.4184C14.4005 11.4184 15.2122 11.4184 16.0101 11.4388C19.3433 11.5576 21.4192 15.2714 19.7129 18.0789" fill="#1C1D1C"/>
<path d="M31.1999 10.4C32.1496 10.4 33.0779 10.6739 33.8674 11.187C34.6569 11.7 35.2721 12.4293 35.6352 13.2824C35.9983 14.1355 36.0929 15.0742 35.9072 15.9796C35.7214 16.885 35.2635 17.7165 34.5915 18.3689C33.9195 19.0213 33.0636 19.4652 32.132 19.6445C31.2005 19.8238 30.2351 19.7304 29.3582 19.3761C28.4812 19.0219 27.732 18.4227 27.2054 17.6544C26.6789 16.886 26.3985 15.9831 26.3999 15.0598C26.4004 14.4475 26.5249 13.8412 26.7664 13.2756C27.0078 12.71 27.3615 12.1961 27.8072 11.7634C28.253 11.3307 28.782 10.9876 29.3641 10.7537C29.9462 10.5197 30.57 10.3996 31.1999 10.4Z" fill="#1C1D1C"/>
<path d="M27.9406 24.8V32.6292C27.9406 35.3799 29.2519 36.6522 31.1965 36.6522C33.2616 36.6522 34.4663 35.404 34.4663 32.6292V24.8H37.3333V32.9146C37.3333 37.2642 34.8414 39.2 31.0485 39.2C27.4277 39.2 25.0667 37.3742 25.0667 32.9318V24.8H27.9406Z" fill="#1C1D1C"/>
</svg>
