<svg width="18" height="20" viewBox="0 0 18 20" fill="none" xmlns="http://www.w3.org/2000/svg">
<path d="M15.8095 10.8983C15.8461 10.6049 15.8736 10.3116 15.8736 9.99992C15.8736 9.68825 15.8461 9.39492 15.8095 9.10159L17.7436 7.58909C17.9178 7.45159 17.9636 7.20408 17.8536 7.00242L16.0203 3.83075C15.9378 3.68409 15.782 3.60159 15.617 3.60159C15.562 3.60159 15.507 3.61075 15.4611 3.62909L13.1786 4.54575C12.702 4.17909 12.1886 3.87659 11.6295 3.64742L11.2811 1.21825C11.2536 0.998252 11.0611 0.833252 10.832 0.833252H7.1653C6.93613 0.833252 6.74363 0.998252 6.71613 1.21825L6.3678 3.64742C5.80863 3.87659 5.2953 4.18825 4.81863 4.54575L2.53613 3.62909C2.48113 3.61075 2.42613 3.60159 2.37113 3.60159C2.2153 3.60159 2.05947 3.68409 1.97697 3.83075L0.143632 7.00242C0.0244654 7.20408 0.0794655 7.45159 0.253632 7.58909L2.1878 9.10159C2.15113 9.39492 2.12363 9.69742 2.12363 9.99992C2.12363 10.3024 2.15113 10.6049 2.1878 10.8983L0.253632 12.4108C0.0794655 12.5483 0.0336321 12.7958 0.143632 12.9974L1.97697 16.1691C2.05947 16.3158 2.2153 16.3983 2.3803 16.3983C2.4353 16.3983 2.4903 16.3891 2.53613 16.3708L4.81863 15.4541C5.2953 15.8208 5.80863 16.1233 6.3678 16.3524L6.71613 18.7816C6.74363 19.0016 6.93613 19.1666 7.1653 19.1666H10.832C11.0611 19.1666 11.2536 19.0016 11.2811 18.7816L11.6295 16.3524C12.1886 16.1233 12.702 15.8116 13.1786 15.4541L15.4611 16.3708C15.5161 16.3891 15.5711 16.3983 15.6261 16.3983C15.782 16.3983 15.9378 16.3158 16.0203 16.1691L17.8536 12.9974C17.9636 12.7958 17.9178 12.5483 17.7436 12.4108L15.8095 10.8983ZM13.9945 9.33075C14.0311 9.61492 14.0403 9.80742 14.0403 9.99992C14.0403 10.1924 14.022 10.3941 13.9945 10.6691L13.8661 11.7049L14.682 12.3466L15.672 13.1166L15.0303 14.2258L13.8661 13.7583L12.9128 13.3733L12.0878 13.9966C11.6936 14.2899 11.3178 14.5099 10.942 14.6658L9.9703 15.0599L9.82363 16.0958L9.6403 17.3333H8.35697L8.1828 16.0958L8.03613 15.0599L7.06447 14.6658C6.6703 14.5008 6.30363 14.2899 5.93697 14.0149L5.1028 13.3733L4.13113 13.7674L2.96697 14.2349L2.3253 13.1258L3.3153 12.3558L4.13113 11.7141L4.0028 10.6783C3.9753 10.3941 3.95697 10.1833 3.95697 9.99992C3.95697 9.81659 3.9753 9.60575 4.0028 9.33075L4.13113 8.29492L3.3153 7.65325L2.3253 6.88325L2.96697 5.77409L4.13113 6.24159L5.08447 6.62659L5.90947 6.00325C6.30363 5.70992 6.67947 5.48992 7.0553 5.33409L8.02697 4.93992L8.17363 3.90409L8.35697 2.66659H9.63113L9.8053 3.90409L9.95197 4.93992L10.9236 5.33409C11.3178 5.49909 11.6845 5.70992 12.0511 5.98492L12.8853 6.62659L13.857 6.23242L15.0211 5.76492L15.6628 6.87409L14.682 7.65325L13.8661 8.29492L13.9945 9.33075ZM8.99863 6.33325C6.9728 6.33325 5.33197 7.97409 5.33197 9.99992C5.33197 12.0258 6.9728 13.6666 8.99863 13.6666C11.0245 13.6666 12.6653 12.0258 12.6653 9.99992C12.6653 7.97409 11.0245 6.33325 8.99863 6.33325ZM8.99863 11.8333C7.9903 11.8333 7.1653 11.0083 7.1653 9.99992C7.1653 8.99159 7.9903 8.16659 8.99863 8.16659C10.007 8.16659 10.832 8.99159 10.832 9.99992C10.832 11.0083 10.007 11.8333 8.99863 11.8333Z" fill="#757575"/>
</svg>
