<svg width="20" height="20" viewBox="0 0 20 20" fill="none" xmlns="http://www.w3.org/2000/svg">
<path d="M14.2535 10.9166C14.941 10.9166 15.546 10.5408 15.8577 9.97242L19.1393 4.02325C19.4785 3.41825 19.0385 2.66659 18.3419 2.66659H4.77518L3.91352 0.833252H0.916016V2.66659H2.74935L6.04935 9.62409L4.81185 11.8608C4.14268 13.0891 5.02268 14.5833 6.41602 14.5833H17.416V12.7499H6.41602L7.42435 10.9166H14.2535ZM5.64602 4.49992H16.7835L14.2535 9.08325H7.81852L5.64602 4.49992ZM6.41602 15.4999C5.40768 15.4999 4.59185 16.3249 4.59185 17.3333C4.59185 18.3416 5.40768 19.1666 6.41602 19.1666C7.42435 19.1666 8.24935 18.3416 8.24935 17.3333C8.24935 16.3249 7.42435 15.4999 6.41602 15.4999ZM15.5827 15.4999C14.5744 15.4999 13.7585 16.3249 13.7585 17.3333C13.7585 18.3416 14.5744 19.1666 15.5827 19.1666C16.591 19.1666 17.416 18.3416 17.416 17.3333C17.416 16.3249 16.591 15.4999 15.5827 15.4999Z" fill="#757575"/>
</svg>
