<svg width="12" height="20" viewBox="0 0 12 20" fill="none" xmlns="http://www.w3.org/2000/svg">
<g clip-path="url(#clip0_526_4487)">
<path d="M4.4806 20C4.118 19.9105 3.74639 19.8484 3.39392 19.7266C1.44016 19.0535 0.150035 16.9348 0.377505 14.8066C0.514137 13.5306 1.05078 12.479 1.98744 11.652C2.09104 11.5609 2.10005 11.4633 2.10005 11.3441C2.10005 8.56628 2.10005 5.78841 2.10005 3.01055C2.10005 1.90273 2.53584 1.04023 3.42958 0.435547C3.73994 0.228049 4.08932 0.0919387 4.45432 0.0363281C4.48904 0.0272708 4.52295 0.0151165 4.55567 0L5.19378 0C5.33342 0.0328125 5.47418 0.0605469 5.61194 0.0996094C6.85289 0.451172 7.67418 1.57305 7.68094 2.94336C7.6877 4.25781 7.68094 5.57227 7.68094 6.88867C7.68094 8.37891 7.68094 9.86914 7.67831 11.3594C7.67831 11.4957 7.71998 11.5805 7.8172 11.6719C9.24808 13.0195 9.77321 14.6859 9.22818 16.6105C8.69517 18.5 7.40843 19.5977 5.54287 19.9531L5.30639 20H4.4806ZM6.55635 7.28633H6.55147C6.55147 5.79531 6.57324 4.3043 6.54472 2.81406C6.52107 1.5875 5.24071 0.802734 4.17993 1.34219C3.51329 1.68281 3.22088 2.26875 3.222 3.03633C3.22576 5.92031 3.222 8.8043 3.22726 11.6883C3.22726 12.0035 3.12929 12.2273 2.88005 12.4145C1.59631 13.3762 1.13086 15.1465 1.74983 16.6641C2.36392 18.1695 3.9168 19.077 5.45541 18.7734C6.90694 18.4875 7.84084 17.5711 8.20983 16.0781C8.54765 14.7086 8.01689 13.2477 6.89868 12.4062C6.65582 12.223 6.55297 12.0063 6.55447 11.6984C6.56161 10.2289 6.55748 8.75742 6.55748 7.28633H6.55635Z" fill="#9E9E9E"/>
<path d="M10.2342 3.49338C9.96505 3.49338 9.69629 3.4969 9.42753 3.49338C9.05968 3.48635 8.80781 3.24221 8.81156 2.90315C8.81532 2.56409 9.06794 2.32502 9.43654 2.32268C9.98082 2.31903 10.5248 2.31903 11.0686 2.32268C11.432 2.32542 11.688 2.57581 11.6846 2.91252C11.6812 3.24924 11.4346 3.48479 11.0784 3.49182C10.7969 3.49768 10.5153 3.49338 10.2342 3.49338Z" fill="#9E9E9E"/>
<path d="M10.2335 5.83711C9.95832 5.83711 9.68318 5.8418 9.40766 5.83711C9.05557 5.82969 8.80708 5.58008 8.81158 5.24805C8.81534 4.92227 9.05745 4.67422 9.40015 4.66953C9.96295 4.66224 10.526 4.66224 11.0893 4.66953C11.4399 4.67383 11.6899 4.93008 11.6854 5.25977C11.6809 5.58945 11.4342 5.83164 11.078 5.83789C10.7965 5.84101 10.515 5.83711 10.2335 5.83711Z" fill="#9E9E9E"/>
<path d="M10.2342 8.18083C9.95905 8.18083 9.68391 8.18513 9.40839 8.18083C9.05668 8.1738 8.80781 7.92458 8.81157 7.59255C8.81494 7.26716 9.0563 7.01833 9.39939 7.01326C9.96844 7.00518 10.5375 7.00518 11.1065 7.01326C11.4444 7.01912 11.6876 7.27771 11.6846 7.60115C11.6816 7.92458 11.4376 8.17146 11.0968 8.17927C10.8096 8.18591 10.524 8.18044 10.2342 8.18083Z" fill="#9E9E9E"/>
<path d="M10.2436 10.5247C9.96842 10.5247 9.69328 10.5282 9.41776 10.5247C9.06304 10.5192 8.81455 10.279 8.81155 9.94614C8.80855 9.61333 9.05591 9.36021 9.40913 9.35669C9.96566 9.34888 10.5223 9.34888 11.0791 9.35669C11.435 9.36099 11.6819 9.6063 11.6849 9.93755C11.6879 10.2758 11.4335 10.5188 11.0686 10.5258H10.2428L10.2436 10.5247Z" fill="#9E9E9E"/>
<path d="M4.33032 12.9625V12.7199C4.33032 10.272 4.33032 7.82407 4.33032 5.37615C4.32623 5.28527 4.33202 5.19419 4.34759 5.10466C4.37927 4.97087 4.45493 4.85282 4.56147 4.77099C4.66801 4.68915 4.79871 4.64869 4.9309 4.65662C5.06588 4.6692 5.19226 4.73095 5.28778 4.83099C5.38329 4.93103 5.44181 5.06295 5.45303 5.20349C5.45904 5.27459 5.45566 5.34646 5.45566 5.41795V12.9523C6.81748 13.3762 7.34411 14.6957 7.13541 15.7445C6.9177 16.8383 5.99318 17.6402 4.93541 17.6555C4.40853 17.665 3.89461 17.4851 3.48036 17.1462C3.06611 16.8072 2.77688 16.33 2.66146 15.7949C2.52445 15.1699 2.62392 14.5789 2.94523 14.0324C3.26654 13.4859 3.73875 13.1426 4.33032 12.9625ZM4.89787 16.4844C5.12782 16.4833 5.3523 16.4113 5.54287 16.2774C5.73344 16.1435 5.88152 15.9537 5.96835 15.7321C6.05517 15.5105 6.07683 15.2671 6.03058 15.0327C5.98433 14.7983 5.87225 14.5834 5.70855 14.4154C5.54484 14.2473 5.33689 14.1336 5.11103 14.0887C4.88517 14.0437 4.65157 14.0696 4.43984 14.163C4.22811 14.2563 4.04778 14.413 3.9217 14.6131C3.79562 14.8132 3.72946 15.0478 3.73162 15.2871C3.73634 15.6059 3.86123 15.9101 4.07937 16.134C4.29751 16.358 4.59145 16.4838 4.89787 16.4844Z" fill="#9E9E9E"/>
</g>
<defs>
<clipPath id="clip0_526_4487">
<rect width="11.3333" height="20" fill="white" transform="translate(0.351562)"/>
</clipPath>
</defs>
</svg>
