<svg width="14" height="20" viewBox="0 0 14 20" fill="none" xmlns="http://www.w3.org/2000/svg">
<path d="M6.13761 19.9985C5.70283 19.9721 5.26703 19.952 4.83276 19.9188C3.64928 19.8287 2.46426 19.7348 1.32892 19.3727C1.03319 19.2749 0.748555 19.1489 0.479333 18.9964C0.157217 18.8178 0 18.5384 0 18.169C0.00409686 12.7257 0.00409686 7.28229 0 1.83893C0 1.44406 0.179238 1.17054 0.516717 0.969923C1.10154 0.622027 1.75755 0.46496 2.42329 0.354377C4.57415 -0.00232715 6.73729 -0.0678941 8.9117 0.0607933C9.98712 0.125871 11.0656 0.20416 12.1108 0.470831C12.5811 0.600019 13.0379 0.770196 13.4756 0.97922C13.8341 1.14167 13.9964 1.44553 13.9964 1.8404C13.992 7.212 13.9932 12.5838 14 17.9557C14 18.6559 13.8064 18.9054 13.1064 19.2156C12.4637 19.5004 11.7749 19.6448 11.0754 19.7191C10.0655 19.8273 9.05099 19.8904 8.03855 19.9736C7.97813 19.9785 7.91872 19.9912 7.85829 20L6.13761 19.9985ZM0.883386 2.59393V17.8113C0.883386 18.4288 0.883386 18.4244 1.50867 18.5991C2.42329 18.8555 3.36199 18.9813 4.30683 19.0537C6.5304 19.224 8.75192 19.2191 10.9642 18.9025C11.6044 18.8095 12.2394 18.6921 12.8406 18.4474C13.0301 18.3706 13.1192 18.2757 13.1187 18.0589C13.1115 12.975 13.1096 7.89115 13.113 2.80727V2.57729C13.0829 2.57797 13.0529 2.58141 13.0234 2.58757C12.2266 2.89877 11.3847 3.0206 10.5382 3.1258C9.07439 3.29801 7.59879 3.36067 6.12481 3.31321C4.80767 3.27602 3.4936 3.1855 2.20206 2.92568C1.7637 2.83858 1.33558 2.70794 0.883386 2.59393ZM13.0715 1.65691C12.9133 1.58743 12.7991 1.52871 12.6788 1.48614C11.9321 1.22143 11.1517 1.08393 10.3645 1.01836C9.28451 0.928821 8.20038 0.853468 7.11676 0.839768C5.51898 0.819706 3.92377 0.900442 2.35416 1.21164C1.87431 1.30705 1.39498 1.40736 0.931012 1.66523C1.05648 1.72639 1.15275 1.78902 1.25876 1.8218C1.54913 1.9089 1.84359 2.00383 2.13907 2.06939C3.30002 2.32481 4.48248 2.42365 5.67006 2.46524C7.69339 2.53668 9.71007 2.48824 11.7032 2.10267C12.162 2.0141 12.6204 1.91233 13.0731 1.65495L13.0715 1.65691Z" fill="#9E9E9E"/>
</svg>
