<svg width="21" height="20" viewBox="0 0 21 20" fill="none" xmlns="http://www.w3.org/2000/svg">
<g clip-path="url(#clip0_526_4499)">
<path d="M20.0527 10.6795C20.0007 11.0538 19.9658 11.4308 19.9001 11.8031C19.4611 14.2892 18.26 16.329 16.3283 17.934C15.6173 18.52 14.8266 19 13.9803 19.3595C13.6158 19.517 13.2413 19.4162 13.0199 19.1159C12.8059 18.8255 12.8053 18.4207 13.0475 18.1545C13.1611 18.0387 13.2959 17.9462 13.4444 17.882C15.8777 16.7537 17.4762 14.8972 18.1954 12.3034C19.4798 7.67464 16.5533 2.81693 11.8871 1.79309C7.25846 0.777657 2.69284 3.78039 1.7793 8.43491C0.886068 12.9907 3.76419 17.4063 8.27825 18.406C8.7819 18.5173 9.2569 18.196 9.26367 17.7004C9.27982 16.5547 9.26888 15.4085 9.26888 14.2435C9.17565 14.2183 9.08294 14.1952 8.9918 14.1679C8.20978 13.934 7.52284 13.4533 7.03195 12.7965C6.54107 12.1398 6.27215 11.3416 6.26471 10.5193C6.26003 9.85095 6.26471 9.18309 6.26471 8.51471C6.26471 8.01435 6.58555 7.69144 7.08034 7.68514C7.29388 7.68252 7.50794 7.68514 7.74857 7.68514V7.46252C7.74857 6.88497 7.74857 6.30743 7.74857 5.73303C7.74857 5.23739 8.07617 4.89296 8.53607 4.89296C8.98555 4.89611 9.30846 5.24001 9.31003 5.72463C9.31003 6.36623 9.31003 7.00783 9.31003 7.66729H10.8725V7.45727C10.8725 6.87972 10.8725 6.30218 10.8725 5.72778C10.8725 5.23318 11.2017 4.88771 11.6621 4.89191C12.1116 4.89558 12.4324 5.24001 12.434 5.72568C12.434 6.36728 12.434 7.00888 12.434 7.68199C12.635 7.68199 12.8277 7.68199 13.0199 7.68199C13.5668 7.68199 13.8783 7.99702 13.8793 8.54727C13.8793 9.16997 13.8793 9.79232 13.8793 10.4143C13.8793 12.2767 12.7225 13.7657 10.9283 14.2214C10.9033 14.2277 10.8798 14.2393 10.8324 14.2566V14.4603C10.8324 15.502 10.8324 16.5437 10.8324 17.5854C10.8288 19.1988 9.4444 20.3077 7.8845 19.9197C4.24319 19.0153 1.79683 16.7798 0.545443 13.2133C0.289204 12.4633 0.134511 11.6818 0.0855469 10.89C0.078384 10.8323 0.0674224 10.7751 0.0527344 10.7188L0.0527344 9.50022C0.0641927 9.44299 0.0782552 9.38629 0.0860677 9.32906C0.138151 8.94682 0.170964 8.56039 0.242318 8.18236C1.35794 2.33599 7.23034 -1.30782 12.8798 0.439528C16.7585 1.63926 19.0892 4.34586 19.9012 8.35562C19.9746 8.71948 20.0053 9.09069 20.0527 9.46084V10.6795ZM7.82773 9.26185C7.82773 9.70604 7.81992 10.1303 7.82773 10.554C7.85221 11.5951 8.58503 12.4714 9.61419 12.7014C10.5876 12.9188 11.6199 12.4105 12.0783 11.5012C12.4428 10.7829 12.2767 10.019 12.3204 9.26185H7.82773Z" fill="#9E9E9E"/>
</g>
<defs>
<clipPath id="clip0_526_4499">
<rect width="20" height="20" fill="white" transform="translate(0.0527344)"/>
</clipPath>
</defs>
</svg>
