<svg width="23" height="22" viewBox="0 0 23 22" fill="none" xmlns="http://www.w3.org/2000/svg">
<circle opacity="0.8" cx="15.3044" cy="7.17391" r="7.17391" fill="#F2DE00"/>
<g clip-path="url(#clip0_37_967)">
<path d="M8.93683 2.86963H9.23758C9.25674 2.88414 9.27722 2.89685 9.29874 2.90759C12.0981 4.05381 14.8981 5.19987 17.6987 6.34576C18.0641 6.49561 18.1739 6.65396 18.1739 7.03908C18.1739 10.6406 18.1739 14.2421 18.1739 17.8436C18.1739 18.2197 18.0601 18.3931 17.7163 18.5314C14.9514 19.6637 12.1863 20.7959 9.42104 21.9281C9.31595 21.9747 9.20222 21.9988 9.08721 21.9988C8.97219 21.9988 8.85846 21.9747 8.75337 21.9281C5.99515 20.7949 3.23592 19.6643 0.475689 18.5364C0.112281 18.3866 0.000501253 18.2287 0.000501253 17.8436C0.000167084 14.2421 0 10.6406 0 7.03908C0 6.66145 0.112782 6.49411 0.457644 6.35275C2.56591 5.49059 4.67351 4.62826 6.78044 3.76576C7.50074 3.46905 8.22054 3.16934 8.93683 2.86963ZM16.9719 7.90324C16.8992 7.92722 16.8466 7.94121 16.7965 7.96169C14.4707 8.9131 12.1445 9.86417 9.81803 10.8149C9.69723 10.8649 9.6857 10.9338 9.6857 11.0412C9.68771 14.1432 9.68771 17.2452 9.6857 20.3472C9.6857 20.3971 9.69222 20.4511 9.69623 20.5155C9.76189 20.489 9.80801 20.471 9.85312 20.4521C12.1619 19.5073 14.471 18.5636 16.7804 17.6208C16.9213 17.5629 16.9739 17.4964 16.9739 17.3396C16.9682 14.2686 16.9669 11.1977 16.9699 8.12703L16.9719 7.90324ZM1.21303 7.89325C1.20752 7.95919 1.2025 7.98966 1.2025 8.02013C1.2025 11.1488 1.20134 14.2771 1.199 17.405C1.199 17.5259 1.25614 17.5624 1.34937 17.6008C3.26082 18.3814 5.17192 19.164 7.0827 19.9486C7.54285 20.1374 8.004 20.3237 8.47768 20.5165C8.48119 20.4536 8.4857 20.4116 8.4857 20.3696C8.4857 17.2537 8.48671 14.1379 8.48871 11.0222C8.48871 10.8998 8.4436 10.8504 8.33834 10.8074C7.41252 10.4333 6.48972 10.0537 5.56541 9.67602L5.10275 9.48871V9.72348C5.10275 10.5027 5.10275 11.2815 5.10275 12.0602C5.10275 12.4428 4.84811 12.7096 4.49824 12.7071C4.15588 12.7071 3.90375 12.4453 3.90275 12.0762C3.90275 11.1041 3.89924 10.1321 3.90275 9.16002C3.90275 9.03215 3.86165 8.9737 3.74536 8.92775C3.27468 8.74293 2.80852 8.54862 2.34185 8.3573C1.97343 8.20545 1.60401 8.0541 1.21303 7.89325ZM16.0431 6.97315C15.9734 6.94068 15.9313 6.9192 15.8877 6.90122C14.8852 6.48962 13.8787 6.08051 12.8762 5.66492C12.8266 5.64202 12.7724 5.63058 12.7177 5.63144C12.663 5.6323 12.6093 5.64546 12.5604 5.66991C10.949 6.37423 9.33616 7.07588 7.7218 7.77487C7.14686 8.02463 6.57242 8.27438 5.96741 8.53913C6.05714 8.57809 6.11779 8.60606 6.18145 8.63154C7.07017 8.99568 7.96089 9.35484 8.8461 9.72747C8.92001 9.7628 9.00084 9.78143 9.08281 9.78203C9.16477 9.78264 9.24586 9.7652 9.32029 9.73097C11.0747 9.00667 12.8291 8.29187 14.5834 7.57356C15.0636 7.37775 15.5388 7.18045 16.0431 6.97315ZM2.13233 6.96565C2.21453 7.00362 2.26917 7.03109 2.32581 7.05457C2.9604 7.31531 3.59649 7.57007 4.22857 7.83631C4.2867 7.86306 4.35013 7.87645 4.41416 7.8755C4.47818 7.87455 4.54118 7.85928 4.59849 7.83081C6.23224 7.11617 7.86716 6.40453 9.50325 5.69589C10.0451 5.46011 10.586 5.22384 11.1574 4.97309C11.0722 4.93462 11.0185 4.90815 10.9639 4.88567C10.4045 4.6554 9.8431 4.43061 9.28671 4.19334C9.22266 4.16412 9.15294 4.14933 9.0825 4.15002C9.01206 4.15071 8.94264 4.16687 8.87919 4.19734C7.21904 4.88234 5.55755 5.56335 3.89473 6.24036L2.13233 6.96565Z" fill="black"/>
</g>
<defs>
<clipPath id="clip0_37_967">
<rect width="18.1739" height="19.1304" fill="white" transform="translate(0 2.86963)"/>
</clipPath>
</defs>
</svg>
