<svg width="180" height="180" viewBox="0 0 180 180" fill="none" xmlns="http://www.w3.org/2000/svg">
<circle cx="90" cy="90" r="90" fill="#F2DE00"/>
<path d="M85.3138 146H76.8984C76.7083 146 76.5259 145.927 76.3903 145.796C76.2547 145.665 76.1768 145.486 76.1734 145.299V109.037C76.1748 108.903 76.1374 108.772 76.0657 108.659C75.9939 108.546 75.8907 108.455 75.7683 108.397C75.6459 108.34 75.5093 108.318 75.3746 108.334C75.24 108.35 75.1128 108.404 75.0082 108.489L63.4855 117.405C63.358 117.503 63.2007 117.557 63.0388 117.557C62.8769 117.557 62.7197 117.503 62.5922 117.405L51.0825 108.527C50.9778 108.442 50.8507 108.389 50.716 108.372C50.5813 108.356 50.4447 108.378 50.3223 108.436C50.1999 108.493 50.0967 108.584 50.025 108.697C49.9532 108.811 49.9158 108.942 49.9173 109.075V145.223C49.9173 145.316 49.8984 145.408 49.8618 145.494C49.8252 145.58 49.7716 145.658 49.7041 145.723C49.6366 145.788 49.5566 145.84 49.4687 145.874C49.3808 145.908 49.2868 145.925 49.1922 145.924H40.725C40.6304 145.925 40.5364 145.908 40.4485 145.874C40.3607 145.84 40.2806 145.788 40.2131 145.723C40.1456 145.658 40.092 145.58 40.0554 145.494C40.0188 145.408 40 145.316 40 145.223V93.0009H40.5308C42.3952 93.0009 44.2724 93.0009 46.1368 93.0009C46.6533 92.9865 47.1582 93.1536 47.5609 93.4721L62.6181 105.139C62.7346 105.241 62.8641 105.33 63.0065 105.432C64.4436 104.324 65.8548 103.241 67.253 102.146L78.4132 93.4976C78.8339 93.1635 79.3616 92.9874 79.9021 93.0009C81.7405 93.0009 83.5919 93.0009 85.4433 93.0009H86V145.299C85.9966 145.486 85.9187 145.665 85.7831 145.796C85.6475 145.927 85.465 146 85.275 146" fill="#1C1D1C"/>
<path d="M61.2297 33.1949C54.1704 32.8385 47.0852 33.0676 40 33.1312V82.7792C40 83.8486 40 84.9307 40 86C46.6707 86 53.3544 86 60.0251 86C61.4632 85.9849 62.8957 85.8228 64.2996 85.5163C70.6763 84.2784 76.3818 80.8145 80.3623 75.7643C84.3429 70.7141 86.3295 64.4189 85.9553 58.0413C85.5811 51.6637 82.8714 45.6346 78.3266 41.0676C73.7818 36.5006 67.7089 33.7042 61.2297 33.1949ZM73.9624 67.8212C72.4935 70.4146 70.3384 72.5694 67.7253 74.0574C65.1121 75.5455 62.1382 76.3114 59.1184 76.2741C56.3854 76.2741 53.6394 76.2741 50.9063 76.2741C50.155 76.2741 49.9607 76.0831 49.9607 75.3448C49.9607 70.0617 49.9607 64.7659 49.9607 59.4701C49.9607 54.1744 49.9607 49.0186 49.9607 43.7992C49.9607 43.0227 50.1809 42.8062 50.9711 42.819C54.002 42.819 57.046 42.819 60.0381 42.8954C72.5376 43.3409 80.3223 57.2678 73.9235 67.7957" fill="#1C1D1C"/>
<path d="M117 39C120.561 39 124.042 40.027 127.003 41.9511C129.964 43.8751 132.271 46.6098 133.632 49.809C134.994 53.0082 135.349 56.5281 134.652 59.9235C133.956 63.3189 132.239 66.437 129.719 68.8834C127.199 71.3298 123.989 72.9945 120.495 73.6669C117.002 74.3392 113.382 73.989 110.093 72.6605C106.805 71.3321 103.995 69.0851 102.021 66.2038C100.046 63.3226 98.9948 59.9367 99 56.4744C99.0017 54.1779 99.4687 51.9043 100.374 49.7833C101.28 47.6623 102.606 45.7355 104.278 44.1128C105.949 42.4902 107.933 41.2035 110.116 40.3262C112.299 39.449 114.638 38.9983 117 39Z" fill="#1C1D1C"/>
<path d="M104.777 93V122.36C104.777 132.675 109.695 137.446 116.987 137.446C124.731 137.446 129.249 132.765 129.249 122.36V93H140V123.43C140 139.741 130.655 147 116.432 147C102.854 147 94 140.153 94 123.494V93H104.777Z" fill="#1C1D1C"/>
</svg>
