<svg width="14" height="14" viewBox="0 0 14 14" fill="none" xmlns="http://www.w3.org/2000/svg">
<path d="M6.99998 1.7015C7.96665 1.7015 8.74998 2.48483 8.74998 3.4515C8.74998 4.41816 7.96665 5.2015 6.99998 5.2015C6.03331 5.2015 5.24998 4.41816 5.24998 3.4515C5.24998 2.48483 6.03331 1.7015 6.99998 1.7015ZM6.99998 9.2015C9.47498 9.2015 12.0833 10.4182 12.0833 10.9515V11.8682H1.91665V10.9515C1.91665 10.4182 4.52498 9.2015 6.99998 9.2015ZM6.99998 0.118164C5.15831 0.118164 3.66665 1.60983 3.66665 3.4515C3.66665 5.29316 5.15831 6.78483 6.99998 6.78483C8.84165 6.78483 10.3333 5.29316 10.3333 3.4515C10.3333 1.60983 8.84165 0.118164 6.99998 0.118164ZM6.99998 7.61816C4.77498 7.61816 0.333313 8.73483 0.333313 10.9515V13.4515H13.6666V10.9515C13.6666 8.73483 9.22498 7.61816 6.99998 7.61816Z" fill="#757575"/>
</svg>
