<svg width="22" height="22" viewBox="0 0 22 22" fill="none" xmlns="http://www.w3.org/2000/svg">
<path d="M15.1257 2.75C13.5307 2.75 11.9998 3.4925 11.0007 4.66583C10.0015 3.4925 8.47065 2.75 6.87565 2.75C4.05232 2.75 1.83398 4.96833 1.83398 7.79167C1.83398 11.2567 4.95065 14.08 9.67148 18.37L11.0007 19.5708L12.3298 18.3608C17.0507 14.08 20.1673 11.2567 20.1673 7.79167C20.1673 4.96833 17.949 2.75 15.1257 2.75ZM11.0923 17.0042L11.0007 17.0958L10.909 17.0042C6.54565 13.0533 3.66732 10.4408 3.66732 7.79167C3.66732 5.95833 5.04232 4.58333 6.87565 4.58333C8.28732 4.58333 9.66232 5.49083 10.1482 6.74667H11.8623C12.339 5.49083 13.714 4.58333 15.1257 4.58333C16.959 4.58333 18.334 5.95833 18.334 7.79167C18.334 10.4408 15.4557 13.0533 11.0923 17.0042Z" fill="#9E9E9E"/>
</svg>
