<svg width="18" height="16" viewBox="0 0 18 16" fill="none" xmlns="http://www.w3.org/2000/svg">
<path d="M12.75 0.284668C11.3 0.284668 9.90835 0.959668 9.00002 2.02633C8.09169 0.959668 6.70002 0.284668 5.25002 0.284668C2.68335 0.284668 0.666687 2.30133 0.666687 4.868C0.666687 8.018 3.50002 10.5847 7.79169 14.4847L9.00002 15.5763L10.2084 14.4763C14.5 10.5847 17.3334 8.018 17.3334 4.868C17.3334 2.30133 15.3167 0.284668 12.75 0.284668ZM9.08335 13.243L9.00002 13.3263L8.91669 13.243C4.95002 9.65133 2.33335 7.27634 2.33335 4.868C2.33335 3.20133 3.58335 1.95133 5.25002 1.95133C6.53335 1.95133 7.78335 2.77633 8.22502 3.918H9.78335C10.2167 2.77633 11.4667 1.95133 12.75 1.95133C14.4167 1.95133 15.6667 3.20133 15.6667 4.868C15.6667 7.27634 13.05 9.65133 9.08335 13.243Z" fill="#757575"/>
</svg>
