<svg width="19" height="21" viewBox="0 0 19 21" fill="none" xmlns="http://www.w3.org/2000/svg">
<g clip-path="url(#clip0_41_1198)">
<path d="M7.8928 20.7245H6.42699C6.39389 20.7245 6.3621 20.7117 6.33848 20.6888C6.31486 20.6659 6.3013 20.6348 6.30071 20.6021V14.267C6.30095 14.2437 6.29445 14.2208 6.28195 14.201C6.26945 14.1812 6.25148 14.1653 6.23015 14.1553C6.20883 14.1452 6.18504 14.1414 6.16158 14.1442C6.13812 14.1471 6.11598 14.1565 6.09775 14.1713L4.09072 15.7289C4.06851 15.7461 4.04112 15.7554 4.01292 15.7554C3.98472 15.7554 3.95734 15.7461 3.93512 15.7289L1.93035 14.178C1.91212 14.1631 1.88998 14.1538 1.86652 14.1509C1.84306 14.1481 1.81927 14.1519 1.79795 14.162C1.77662 14.172 1.75866 14.1879 1.74616 14.2077C1.73366 14.2275 1.72715 14.2504 1.72739 14.2737V20.5888C1.7274 20.605 1.72412 20.6211 1.71774 20.6361C1.71137 20.6511 1.70203 20.6647 1.69027 20.6761C1.67852 20.6875 1.66458 20.6965 1.64927 20.7025C1.63396 20.7085 1.61759 20.7114 1.60111 20.7111H0.126285C0.109808 20.7114 0.093437 20.7085 0.0781278 20.7025C0.0628186 20.6965 0.0488782 20.6875 0.0371211 20.6761C0.0253639 20.6647 0.0160258 20.6511 0.00965219 20.6361C0.00327857 20.6211 -2.72239e-06 20.605 1.69473e-09 20.5888V11.4655H0.0924585C0.417191 11.4655 0.744178 11.4655 1.06891 11.4655C1.15888 11.463 1.24682 11.4922 1.31697 11.5478L3.93963 13.5861C3.95993 13.6039 3.98248 13.6195 4.00729 13.6373C4.2576 13.4437 4.5034 13.2545 4.74695 13.0632L6.69084 11.5523C6.76411 11.4939 6.85603 11.4631 6.95017 11.4655C7.27039 11.4655 7.59287 11.4655 7.91535 11.4655H8.01232V20.6021C8.01172 20.6348 7.99816 20.6659 7.97454 20.6888C7.95092 20.7117 7.91914 20.7245 7.88603 20.7245" fill="#1C1D1C"/>
<path d="M3.69608 0.927134C2.46706 0.864829 1.23353 0.904882 0 0.916008V9.59424C0 9.78116 0 9.9703 0 10.1572C1.16137 10.1572 2.32499 10.1572 3.48636 10.1572C3.73672 10.1546 3.98613 10.1262 4.23054 10.0727C5.34072 9.85629 6.33405 9.25081 7.02706 8.36807C7.72007 7.48532 8.06594 6.38494 8.0008 5.27017C7.93565 4.15539 7.46389 3.10153 6.67264 2.30324C5.88139 1.50495 4.82411 1.01615 3.69608 0.927134ZM5.91283 6.97965C5.65709 7.43296 5.28189 7.80961 4.82695 8.06971C4.37201 8.32982 3.85425 8.46369 3.32851 8.45717C2.85268 8.45717 2.3746 8.45717 1.89878 8.45717C1.76799 8.45717 1.73416 8.4238 1.73416 8.29473C1.73416 7.37128 1.73416 6.4456 1.73416 5.51992C1.73416 4.59425 1.73416 3.69304 1.73416 2.78072C1.73416 2.64498 1.7725 2.60715 1.91006 2.60938C2.43775 2.60938 2.96769 2.60938 3.48862 2.62273C5.66477 2.70061 7.02008 5.13497 5.90607 6.9752" fill="#1C1D1C"/>
<path d="M17.5219 11.4656V5.07483C17.5332 2.70723 15.7337 0.784668 13.5147 0.784668C11.2957 0.784668 9.49609 2.70723 9.49609 5.07706V16.4767V16.7259C9.49609 19.6009 11.0431 20.7824 13.4154 20.7824C15.896 20.7824 17.531 19.5297 17.531 16.7148L17.5219 11.4656Z" fill="#F2DE00"/>
<path d="M13.517 1.89746C14.1269 1.89746 14.7231 2.07598 15.2301 2.41041C15.7371 2.74485 16.1323 3.22018 16.3654 3.77627C16.5986 4.33235 16.6594 4.94419 16.5401 5.53437C16.4208 6.12455 16.1267 6.66654 15.6952 7.09177C15.2636 7.517 14.7139 7.80636 14.1156 7.92322C13.5173 8.04009 12.8974 7.97922 12.3341 7.7483C11.7709 7.51739 11.2898 7.12682 10.9516 6.62601C10.6134 6.1252 10.4334 5.53665 10.4343 4.93485C10.4346 4.53568 10.5145 4.14048 10.6696 3.77181C10.8247 3.40314 11.0518 3.06822 11.3381 2.78617C11.6244 2.50412 11.9641 2.28047 12.338 2.12799C12.7118 1.9755 13.1124 1.89717 13.517 1.89746Z" fill="#1C1D1C"/>
<path d="M11.3768 11.4653V16.5321C11.3768 18.3122 12.236 19.1356 13.5101 19.1356C14.8632 19.1356 15.6525 18.3278 15.6525 16.5321V11.4653H17.531V16.7168C17.531 19.5316 15.8983 20.7844 13.4132 20.7844C11.0408 20.7844 9.49384 19.6028 9.49384 16.7279V11.4653H11.3768Z" fill="#1C1D1C"/>
</g>
<defs>
<clipPath id="clip0_41_1198">
<rect width="18.6667" height="20" fill="white" transform="translate(0 0.784668)"/>
</clipPath>
</defs>
</svg>
