<svg width="27" height="22" viewBox="0 0 27 22" fill="none" xmlns="http://www.w3.org/2000/svg">
<circle opacity="0.8" cx="18.2439" cy="8.04878" r="8.04878" fill="#F2DE00"/>
<g clip-path="url(#clip0_37_910)">
<path d="M10.4043 0.536621C10.964 0.627457 11.3901 0.943543 11.774 1.34364C12.0767 1.65867 12.404 1.95218 12.7104 2.26459C12.9143 2.47462 13.1453 2.53763 13.4277 2.49195C13.9537 2.40741 14.4806 2.3276 15.0087 2.26197C16.162 2.11863 17.0011 2.7529 17.2066 3.91538C17.2976 4.43047 17.3866 4.94608 17.4667 5.46274C17.4825 5.59464 17.5313 5.72031 17.6086 5.82788C17.6859 5.93545 17.789 6.02139 17.9083 6.07758C18.389 6.32331 18.8645 6.58059 19.3384 6.8405C20.3268 7.38078 20.653 8.40255 20.1707 9.42642C19.9418 9.91105 19.7109 10.3952 19.4679 10.8735C19.4004 10.9954 19.3652 11.1328 19.3657 11.2724C19.3663 11.4121 19.4026 11.5492 19.471 11.6705C19.7057 12.1289 19.9247 12.5957 20.1473 13.0598C20.6675 14.1336 20.3367 15.1601 19.2957 15.7193C18.8385 15.966 18.3843 16.2191 17.9208 16.4543C17.6467 16.593 17.5093 16.8035 17.4625 17.1033C17.3782 17.6405 17.2898 18.1781 17.1821 18.7111C16.9537 19.8441 16.0699 20.4495 14.9384 20.27C14.4125 20.1865 13.8845 20.1156 13.3575 20.0389C13.2444 20.0198 13.1283 20.029 13.0195 20.0656C12.9107 20.1022 12.8124 20.1652 12.7333 20.249C12.3379 20.6403 11.9391 21.0288 11.5368 21.4146C10.7268 22.1948 9.6536 22.1943 8.84363 21.4146C8.45763 21.0429 8.07059 20.6727 7.69552 20.291C7.60198 20.188 7.48339 20.1116 7.35152 20.0692C7.21965 20.0268 7.0791 20.02 6.94381 20.0494C6.41892 20.1376 5.89142 20.2148 5.36289 20.2768C4.19865 20.4133 3.36683 19.7649 3.17435 18.5887C3.0906 18.0794 2.998 17.5717 2.91425 17.0624C2.89812 16.9339 2.85001 16.8116 2.77442 16.7069C2.69883 16.6023 2.59821 16.5186 2.48195 16.4638C2.01324 16.2202 1.54505 15.9645 1.07582 15.7109C0.0588025 15.1601 -0.271012 14.131 0.232553 13.0793C0.455204 12.6146 0.672133 12.1468 0.908829 11.6894C1.05709 11.4038 1.06073 11.1428 0.912471 10.8556C0.669532 10.3857 0.44428 9.9058 0.219028 9.42747C-0.263729 8.40465 0.0655651 7.37973 1.05137 6.8405C1.51956 6.58427 1.98775 6.32699 2.46322 6.08756C2.7457 5.94579 2.88251 5.72947 2.93141 5.42178C3.01205 4.89095 3.10204 4.36064 3.20765 3.83452C3.43342 2.68937 4.32246 2.08607 5.46485 2.26932C5.98506 2.35385 6.50527 2.42211 7.02549 2.49825C7.13841 2.51782 7.25436 2.50915 7.3632 2.47299C7.47203 2.43684 7.57042 2.37429 7.64974 2.29085C7.97071 1.97266 8.30469 1.6676 8.61786 1.34154C8.99969 0.944068 9.42731 0.627457 9.98809 0.536621H10.4043ZM5.1059 19.0655C5.61311 18.9925 6.17546 18.92 6.73469 18.8287C7.44061 18.7132 8.04562 18.8938 8.55543 19.4062C8.93362 19.7848 9.31962 20.156 9.70406 20.5288C10.0297 20.8439 10.3616 20.8439 10.6925 20.5246C11.0915 20.1376 11.4879 19.7475 11.8863 19.3595C12.3249 18.9321 12.8435 18.7294 13.4548 18.8113C14.0307 18.8875 14.6055 18.9689 15.1798 19.0544C15.6116 19.118 15.8972 18.9258 15.9778 18.4968C16.0642 18.0379 16.1656 17.5796 16.2161 17.1159C16.3123 16.2396 16.7363 15.6248 17.5343 15.2583C17.9239 15.0803 18.2938 14.8587 18.6725 14.656C19.2042 14.372 19.2884 14.1031 19.02 13.5497C18.7989 13.0919 18.5815 12.6324 18.3552 12.1772C18.0545 11.5734 18.0529 10.9732 18.3526 10.3684C18.5903 9.88795 18.8208 9.40436 19.0538 8.92131C19.276 8.45978 19.1797 8.15892 18.7323 7.91792C18.2642 7.66484 17.796 7.41071 17.3215 7.16341C16.7108 6.84365 16.3669 6.34011 16.2603 5.65701C16.1755 5.11305 16.0761 4.57066 15.9752 4.02932C15.8998 3.62503 15.6111 3.4255 15.2063 3.48378C14.6794 3.55939 14.1519 3.63185 13.6259 3.71639C12.9257 3.82875 12.3306 3.64025 11.8291 3.12937C11.4587 2.75238 11.0759 2.38851 10.6966 2.02044C10.36 1.69385 10.0334 1.6949 9.69521 2.02307C9.30089 2.40461 8.90709 2.78773 8.51381 3.17242C8.07059 3.60612 7.54726 3.81037 6.92768 3.72741C6.35927 3.6511 5.79102 3.57094 5.22295 3.48693C4.77817 3.42025 4.49465 3.60875 4.41246 4.0519C4.3261 4.51133 4.22726 4.96971 4.1742 5.43333C4.07536 6.29916 3.66075 6.91138 2.86743 7.27524C2.45906 7.46269 2.0715 7.69529 1.6751 7.90847C1.20691 8.16102 1.11223 8.45348 1.34841 8.94231C1.57522 9.41487 1.79787 9.88742 2.03197 10.3521C2.33837 10.9633 2.33993 11.5676 2.03509 12.1793C1.79631 12.6592 1.5669 13.1438 1.33436 13.6269C1.11795 14.0779 1.21471 14.3825 1.65013 14.6166C2.12561 14.8708 2.60108 15.1291 3.07915 15.3806C3.68208 15.6956 4.0223 16.1971 4.12998 16.8712C4.2205 17.4278 4.31778 17.9844 4.42182 18.5409C4.48425 18.8717 4.73031 19.0676 5.1059 19.0655Z" fill="black"/>
<path d="M6.13341 15.9681C6.02249 15.9657 5.91434 15.9328 5.82066 15.8728C5.72698 15.8128 5.65135 15.7281 5.60195 15.6278C5.55255 15.5275 5.53126 15.4155 5.5404 15.3039C5.54953 15.1923 5.58874 15.0854 5.65377 14.9947C5.70446 14.9283 5.76049 14.8664 5.82128 14.8093C8.44835 12.1574 11.0753 9.50534 13.702 6.85309C13.8518 6.70187 14.0053 6.56693 14.2347 6.56903C14.3497 6.56462 14.4635 6.59462 14.5617 6.65524C14.6599 6.71587 14.7381 6.80442 14.7866 6.90979C14.8414 7.01217 14.8645 7.12876 14.853 7.24452C14.8415 7.36029 14.7959 7.46992 14.7221 7.55929C14.6741 7.61928 14.6219 7.67578 14.566 7.72836C11.9411 10.3806 9.31485 13.0327 6.68744 15.6846C6.53241 15.8416 6.37323 15.9818 6.13341 15.9681Z" fill="black"/>
<path d="M7.73706 10.2328C7.2923 10.2321 6.85775 10.0982 6.48844 9.848C6.11913 9.59786 5.83166 9.24273 5.66243 8.82758C5.49321 8.41244 5.44984 7.95595 5.53781 7.51591C5.62578 7.07587 5.84114 6.67207 6.15661 6.35564C6.47209 6.0392 6.8735 5.82437 7.31002 5.73834C7.74654 5.6523 8.19854 5.69894 8.60879 5.87233C9.01903 6.04573 9.36908 6.33809 9.6146 6.71241C9.86012 7.08672 9.99008 7.52614 9.98802 7.97505C9.98741 8.27256 9.92867 8.56703 9.81515 8.8416C9.70164 9.11617 9.53559 9.36544 9.32651 9.57516C9.11743 9.78487 8.86942 9.9509 8.59668 10.0638C8.32394 10.1766 8.03183 10.234 7.73706 10.2328ZM7.75111 6.94225C7.48195 6.93917 7.22254 7.04385 7.02968 7.23339C6.83683 7.42292 6.72624 7.68186 6.72213 7.95352C6.70912 8.51323 7.18564 9.00049 7.74487 8.99944C8.01383 8.99563 8.27069 8.88599 8.46075 8.69386C8.6508 8.50174 8.75904 8.24232 8.7624 7.97085C8.76323 7.69915 8.6572 7.43823 8.46759 7.24538C8.27798 7.05253 8.02029 6.9435 7.75111 6.94225Z" fill="black"/>
<path d="M12.6553 12.3064C13.1002 12.3074 13.5347 12.4416 13.9038 12.6921C14.273 12.9426 14.5601 13.2981 14.7289 13.7135C14.8977 14.1289 14.9404 14.5855 14.8518 15.0255C14.7632 15.4654 14.5471 15.8689 14.231 16.1848C13.9149 16.5007 13.513 16.7147 13.0762 16.7998C12.6394 16.8849 12.1875 16.8371 11.7776 16.6626C11.3678 16.4882 11.0185 16.1948 10.774 15.8197C10.5295 15.4446 10.4009 15.0048 10.4044 14.5558C10.4055 14.2588 10.4646 13.965 10.5784 13.6911C10.6922 13.4172 10.8583 13.1687 11.0674 12.9597C11.2765 12.7508 11.5244 12.5855 11.7969 12.4734C12.0694 12.3613 12.3611 12.3046 12.6553 12.3064ZM12.6413 15.5949C12.9105 15.5974 13.1698 15.492 13.3621 15.3018C13.5544 15.1116 13.6641 14.8522 13.6671 14.5805C13.6678 14.4453 13.642 14.3112 13.5914 14.1861C13.5407 14.0609 13.4661 13.947 13.3718 13.8509C13.2776 13.7549 13.1655 13.6785 13.042 13.6261C12.9184 13.5738 12.7859 13.5465 12.6519 13.5458C12.518 13.5452 12.3852 13.5712 12.2612 13.6223C12.1372 13.6735 12.0243 13.7487 11.9292 13.8439C11.834 13.939 11.7583 14.0522 11.7064 14.1769C11.6545 14.3015 11.6275 14.4353 11.6269 14.5705C11.6268 14.705 11.653 14.8382 11.7039 14.9625C11.7549 15.0868 11.8296 15.1997 11.9238 15.2948C12.018 15.39 12.1299 15.4654 12.253 15.5169C12.3761 15.5684 12.508 15.5949 12.6413 15.5949Z" fill="black"/>
</g>
<defs>
<clipPath id="clip0_37_910">
<rect width="20.3902" height="21.4634" fill="white" transform="translate(0 0.536621)"/>
</clipPath>
</defs>
</svg>
