<svg width="17" height="17" viewBox="0 0 17 17" fill="none" xmlns="http://www.w3.org/2000/svg">
<path d="M11.64 9.58467C12.24 9.58467 12.768 9.25667 13.04 8.76067L15.904 3.56867C16.2 3.04067 15.816 2.38467 15.208 2.38467H3.368L2.616 0.784668H0V2.38467H1.6L4.48 8.45667L3.4 10.4087C2.816 11.4807 3.584 12.7847 4.8 12.7847H14.4V11.1847H4.8L5.68 9.58467H11.64ZM4.128 3.98467H13.848L11.64 7.98467H6.024L4.128 3.98467ZM4.8 13.5847C3.92 13.5847 3.208 14.3047 3.208 15.1847C3.208 16.0647 3.92 16.7847 4.8 16.7847C5.68 16.7847 6.4 16.0647 6.4 15.1847C6.4 14.3047 5.68 13.5847 4.8 13.5847ZM12.8 13.5847C11.92 13.5847 11.208 14.3047 11.208 15.1847C11.208 16.0647 11.92 16.7847 12.8 16.7847C13.68 16.7847 14.4 16.0647 14.4 15.1847C14.4 14.3047 13.68 13.5847 12.8 13.5847Z" fill="#757575"/>
</svg>
